# Blender v2.83.0 OBJ File: ''
# www.blender.org
mtllib horizontalLaser.mtl
o Cylinder
v -440.593506 0.326155 0.000019
v 440.593506 0.326117 -0.000019
v -440.593506 0.319889 -0.060572
v 440.593506 0.319850 -0.060610
v -440.593506 0.301330 -0.118834
v 440.593506 0.301291 -0.118872
v -440.593506 0.271191 -0.172529
v 440.593506 0.271153 -0.172567
v -440.593506 0.230632 -0.219593
v 440.593506 0.230594 -0.219631
v -440.593506 0.181211 -0.258217
v 440.593506 0.181172 -0.258256
v -440.593506 0.124826 -0.286918
v 440.593506 0.124788 -0.286956
v -440.593506 0.063645 -0.304591
v 440.593506 0.063607 -0.304630
v -440.593506 0.000019 -0.310559
v 440.593506 -0.000019 -0.310598
v -440.593506 -0.063607 -0.304591
v 440.593506 -0.063645 -0.304630
v -440.593506 -0.124788 -0.286918
v 440.593506 -0.124826 -0.286956
v -440.593506 -0.181172 -0.258217
v 440.593506 -0.181211 -0.258256
v -440.593506 -0.230594 -0.219593
v 440.593506 -0.230632 -0.219631
v -440.593506 -0.271153 -0.172529
v 440.593506 -0.271192 -0.172567
v -440.593506 -0.301291 -0.118834
v 440.593506 -0.301330 -0.118872
v -440.593506 -0.319850 -0.060571
v 440.593506 -0.319889 -0.060610
v -440.593506 -0.326117 0.000019
v 440.593506 -0.326155 -0.000019
v -440.593506 -0.319850 0.060610
v 440.593506 -0.319889 0.060572
v -440.593506 -0.301291 0.118873
v 440.593506 -0.301330 0.118834
v -440.593506 -0.271153 0.172567
v 440.593506 -0.271191 0.172529
v -440.593506 -0.230594 0.219631
v 440.593506 -0.230632 0.219593
v -440.593506 -0.181172 0.258256
v 440.593506 -0.181211 0.258217
v -440.593506 -0.124787 0.286956
v 440.593506 -0.124826 0.286918
v -440.593506 -0.063606 0.304630
v 440.593506 -0.063645 0.304591
v -440.593506 0.000020 0.310598
v 440.593506 -0.000019 0.310559
v -440.593506 0.063646 0.304630
v 440.593506 0.063607 0.304591
v -440.593506 0.124826 0.286956
v 440.593506 0.124788 0.286918
v -440.593506 0.181211 0.258255
v 440.593506 0.181173 0.258217
v -440.593506 0.230633 0.219631
v 440.593506 0.230594 0.219592
v -440.593506 0.271192 0.172567
v 440.593506 0.271153 0.172528
v -440.593506 0.301330 0.118872
v 440.593506 0.301291 0.118833
v -440.593506 0.319889 0.060610
v 440.593506 0.319850 0.060571
vt 1.000000 1.000000
vt 0.968750 0.500000
vt 1.000000 0.500000
vt 0.968750 1.000000
vt 0.937500 0.500000
vt 0.937500 1.000000
vt 0.906250 0.500000
vt 0.906250 1.000000
vt 0.875000 0.500000
vt 0.875000 1.000000
vt 0.843750 0.500000
vt 0.843750 1.000000
vt 0.812500 0.500000
vt 0.812500 1.000000
vt 0.781250 0.500000
vt 0.781250 1.000000
vt 0.750000 0.500000
vt 0.750000 1.000000
vt 0.718750 0.500000
vt 0.718750 1.000000
vt 0.687500 0.500000
vt 0.687500 1.000000
vt 0.656250 0.500000
vt 0.656250 1.000000
vt 0.625000 0.500000
vt 0.625000 1.000000
vt 0.593750 0.500000
vt 0.593750 1.000000
vt 0.562500 0.500000
vt 0.562500 1.000000
vt 0.531250 0.500000
vt 0.531250 1.000000
vt 0.500000 0.500000
vt 0.500000 1.000000
vt 0.468750 0.500000
vt 0.468750 1.000000
vt 0.437500 0.500000
vt 0.437500 1.000000
vt 0.406250 0.500000
vt 0.406250 1.000000
vt 0.375000 0.500000
vt 0.375000 1.000000
vt 0.343750 0.500000
vt 0.343750 1.000000
vt 0.312500 0.500000
vt 0.312500 1.000000
vt 0.281250 0.500000
vt 0.281250 1.000000
vt 0.250000 0.500000
vt 0.250000 1.000000
vt 0.218750 0.500000
vt 0.218750 1.000000
vt 0.187500 0.500000
vt 0.187500 1.000000
vt 0.156250 0.500000
vt 0.156250 1.000000
vt 0.125000 0.500000
vt 0.125000 1.000000
vt 0.093750 0.500000
vt 0.093750 1.000000
vt 0.062500 0.500000
vt 0.028269 0.341844
vt 0.158156 0.028269
vt 0.471731 0.158156
vt 0.062500 1.000000
vt 0.031250 0.500000
vt 0.031250 1.000000
vt 0.000000 0.500000
vt 0.985388 0.296822
vt 0.796822 0.014612
vt 0.514611 0.203179
vt 0.341844 0.471731
vt 0.296822 0.485388
vt 0.250000 0.490000
vt 0.203179 0.485389
vt 0.158156 0.471731
vt 0.116663 0.449553
vt 0.080295 0.419706
vt 0.050447 0.383337
vt 0.014612 0.296822
vt 0.010000 0.250000
vt 0.014611 0.203179
vt 0.028269 0.158156
vt 0.050447 0.116663
vt 0.080294 0.080294
vt 0.116663 0.050447
vt 0.203178 0.014612
vt 0.250000 0.010000
vt 0.296822 0.014612
vt 0.341844 0.028269
vt 0.383337 0.050447
vt 0.419706 0.080294
vt 0.449553 0.116663
vt 0.485388 0.203178
vt 0.490000 0.250000
vt 0.485388 0.296822
vt 0.471731 0.341844
vt 0.449553 0.383337
vt 0.419706 0.419706
vt 0.383337 0.449553
vt 0.000000 1.000000
vt 0.703179 0.485389
vt 0.750000 0.490000
vt 0.796822 0.485388
vt 0.841844 0.471731
vt 0.883337 0.449553
vt 0.919706 0.419706
vt 0.949553 0.383337
vt 0.971731 0.341844
vt 0.990000 0.250000
vt 0.985388 0.203178
vt 0.971731 0.158156
vt 0.949553 0.116663
vt 0.919706 0.080294
vt 0.883337 0.050447
vt 0.841844 0.028269
vt 0.750000 0.010000
vt 0.703178 0.014612
vt 0.658156 0.028269
vt 0.616663 0.050447
vt 0.580294 0.080294
vt 0.550447 0.116663
vt 0.528269 0.158156
vt 0.510000 0.250000
vt 0.514612 0.296822
vt 0.528269 0.341844
vt 0.550447 0.383337
vt 0.580295 0.419706
vt 0.616663 0.449553
vt 0.658156 0.471731
vn 0.0000 0.9947 -0.1029
vn 0.0000 0.9528 -0.3035
vn 0.0000 0.8720 -0.4895
vn 0.0000 0.7575 -0.6528
vn -0.0000 0.6158 -0.7879
vn -0.0000 0.4536 -0.8912
vn -0.0000 0.2775 -0.9607
vn -0.0000 0.0934 -0.9956
vn -0.0000 -0.0934 -0.9956
vn -0.0000 -0.2775 -0.9607
vn -0.0000 -0.4536 -0.8912
vn -0.0000 -0.6158 -0.7879
vn -0.0000 -0.7575 -0.6528
vn -0.0000 -0.8720 -0.4895
vn -0.0000 -0.9528 -0.3035
vn -0.0000 -0.9947 -0.1029
vn -0.0000 -0.9947 0.1029
vn -0.0000 -0.9528 0.3035
vn -0.0000 -0.8720 0.4895
vn -0.0000 -0.7575 0.6528
vn 0.0000 -0.6158 0.7879
vn 0.0000 -0.4536 0.8912
vn 0.0000 -0.2775 0.9607
vn 0.0000 -0.0934 0.9956
vn 0.0000 0.0934 0.9956
vn 0.0000 0.2775 0.9607
vn 0.0000 0.4536 0.8912
vn 0.0000 0.6158 0.7879
vn 0.0000 0.7575 0.6528
vn 0.0000 0.8720 0.4895
vn 1.0000 0.0002 0.0000
vn 0.0000 0.9528 0.3035
vn 0.0000 0.9947 0.1029
vn -1.0000 0.0002 0.0000
vn 1.0000 0.0000 0.0000
vn 1.0000 -0.0035 0.0000
vn 1.0000 -0.0050 0.0000
vn 1.0000 0.0025 0.0000
vn 1.0000 -0.0002 0.0000
vn 1.0000 0.0050 0.0000
vn 1.0000 0.0001 0.0000
vn 1.0000 0.0010 0.0000
vn 1.0000 -0.0005 0.0000
vn 1.0000 0.0006 0.0000
vn -1.0000 0.0050 0.0000
vn -1.0000 0.0000 0.0000
vn -1.0000 -0.0050 0.0000
vn -1.0000 -0.0013 0.0000
vn -1.0000 -0.0006 0.0000
vn -1.0000 -0.0035 0.0000
vn -1.0000 -0.0010 0.0000
vn -1.0000 0.0009 0.0000
vn -1.0000 0.0004 0.0000
usemtl None
s off
f 2/1/1 3/2/1 1/3/1
f 4/4/2 5/5/2 3/2/2
f 6/6/3 7/7/3 5/5/3
f 8/8/4 9/9/4 7/7/4
f 10/10/5 11/11/5 9/9/5
f 12/12/6 13/13/6 11/11/6
f 14/14/7 15/15/7 13/13/7
f 16/16/8 17/17/8 15/15/8
f 18/18/9 19/19/9 17/17/9
f 20/20/10 21/21/10 19/19/10
f 22/22/11 23/23/11 21/21/11
f 24/24/12 25/25/12 23/23/12
f 26/26/13 27/27/13 25/25/13
f 28/28/14 29/29/14 27/27/14
f 30/30/15 31/31/15 29/29/15
f 32/32/16 33/33/16 31/31/16
f 34/34/17 35/35/17 33/33/17
f 36/36/18 37/37/18 35/35/18
f 38/38/19 39/39/19 37/37/19
f 40/40/20 41/41/20 39/39/20
f 42/42/21 43/43/21 41/41/21
f 44/44/22 45/45/22 43/43/22
f 46/46/23 47/47/23 45/45/23
f 48/48/24 49/49/24 47/47/24
f 50/50/25 51/51/25 49/49/25
f 52/52/26 53/53/26 51/51/26
f 54/54/27 55/55/27 53/53/27
f 56/56/28 57/57/28 55/55/28
f 58/58/29 59/59/29 57/57/29
f 60/60/30 61/61/30 59/59/30
f 54/62/31 38/63/31 22/64/31
f 62/65/32 63/66/32 61/61/32
f 64/67/33 1/68/33 63/66/33
f 15/69/34 31/70/34 47/71/34
f 2/1/1 4/4/1 3/2/1
f 4/4/2 6/6/2 5/5/2
f 6/6/3 8/8/3 7/7/3
f 8/8/4 10/10/4 9/9/4
f 10/10/5 12/12/5 11/11/5
f 12/12/6 14/14/6 13/13/6
f 14/14/7 16/16/7 15/15/7
f 16/16/8 18/18/8 17/17/8
f 18/18/9 20/20/9 19/19/9
f 20/20/10 22/22/10 21/21/10
f 22/22/11 24/24/11 23/23/11
f 24/24/12 26/26/12 25/25/12
f 26/26/13 28/28/13 27/27/13
f 28/28/14 30/30/14 29/29/14
f 30/30/15 32/32/15 31/31/15
f 32/32/16 34/34/16 33/33/16
f 34/34/17 36/36/17 35/35/17
f 36/36/18 38/38/18 37/37/18
f 38/38/19 40/40/19 39/39/19
f 40/40/20 42/42/20 41/41/20
f 42/42/21 44/44/21 43/43/21
f 44/44/22 46/46/22 45/45/22
f 46/46/23 48/48/23 47/47/23
f 48/48/24 50/50/24 49/49/24
f 50/50/25 52/52/25 51/51/25
f 52/52/26 54/54/26 53/53/26
f 54/54/27 56/56/27 55/55/27
f 56/56/28 58/58/28 57/57/28
f 58/58/29 60/60/29 59/59/29
f 60/60/30 62/65/30 61/61/30
f 6/72/35 4/73/35 2/74/35
f 2/74/35 64/75/35 6/72/35
f 64/75/36 62/76/36 6/72/36
f 62/76/37 60/77/37 58/78/37
f 58/78/38 56/79/38 54/62/38
f 54/62/35 52/80/35 50/81/35
f 50/81/35 48/82/35 54/62/35
f 48/82/39 46/83/39 54/62/39
f 46/83/35 44/84/35 38/63/35
f 44/84/35 42/85/35 38/63/35
f 42/85/37 40/86/37 38/63/37
f 38/63/35 36/87/35 34/88/35
f 34/88/35 32/89/35 30/90/35
f 30/90/40 28/91/40 26/92/40
f 26/92/35 24/93/35 22/64/35
f 22/64/35 20/94/35 18/95/35
f 18/95/35 16/96/35 22/64/35
f 16/96/41 14/97/41 22/64/41
f 14/97/35 12/98/35 10/99/35
f 10/99/37 8/100/37 6/72/37
f 62/76/35 58/78/35 6/72/35
f 58/78/42 54/62/42 6/72/42
f 38/63/43 34/88/43 22/64/43
f 34/88/35 30/90/35 22/64/35
f 30/90/44 26/92/44 22/64/44
f 14/97/35 10/99/35 22/64/35
f 10/99/35 6/72/35 22/64/35
f 54/62/35 46/83/35 38/63/35
f 6/72/35 54/62/35 22/64/35
f 62/65/32 64/67/32 63/66/32
f 64/67/33 2/101/33 1/68/33
f 63/102/45 1/103/45 3/104/45
f 3/104/45 5/105/45 7/106/45
f 7/106/46 9/107/46 11/108/46
f 11/108/46 13/109/46 7/106/46
f 13/109/46 15/69/46 7/106/46
f 15/69/46 17/110/46 19/111/46
f 19/111/46 21/112/46 15/69/46
f 21/112/46 23/113/46 15/69/46
f 23/113/46 25/114/46 31/70/46
f 25/114/46 27/115/46 31/70/46
f 27/115/47 29/116/47 31/70/47
f 31/70/47 33/117/47 35/118/47
f 35/118/47 37/119/47 39/120/47
f 39/120/46 41/121/46 43/122/46
f 43/122/48 45/123/48 47/71/48
f 47/71/49 49/124/49 51/125/49
f 51/125/46 53/126/46 55/127/46
f 55/127/50 57/128/50 63/102/50
f 57/128/46 59/129/46 63/102/46
f 59/129/47 61/130/47 63/102/47
f 63/102/48 3/104/48 7/106/48
f 31/70/51 35/118/51 47/71/51
f 35/118/52 39/120/52 47/71/52
f 39/120/49 43/122/49 47/71/49
f 47/71/46 51/125/46 63/102/46
f 51/125/52 55/127/52 63/102/52
f 63/102/53 7/106/53 15/69/53
f 15/69/46 23/113/46 31/70/46
f 63/102/46 15/69/46 47/71/46
